<?xml version="1.0" standalone="no"?>
<!DOCTYPE svg PUBLIC "-//W3C//DTD SVG 20010904//EN"
 "http://www.w3.org/TR/2001/REC-SVG-20010904/DTD/svg10.dtd">
<svg version="1.0" xmlns="http://www.w3.org/2000/svg"
 width="259.000000pt" height="259.000000pt" viewBox="0 0 259.000000 259.000000"
 preserveAspectRatio="xMidYMid meet">
<metadata>
Created by potrace 1.14, written by Peter Selinger 2001-2017
</metadata>
<g transform="translate(0.000000,259.000000) scale(0.100000,-0.100000)"
fill="#000000" stroke="none">
<path d="M655 2153 c-128 -31 -223 -87 -325 -193 -156 -162 -271 -417 -314
-696 -21 -134 -14 -369 14 -464 70 -245 242 -372 479 -354 118 9 198 49 297
148 114 115 198 241 396 596 68 123 91 161 93 158 4 -5 215 -359 237 -397 39
-68 142 -218 196 -284 137 -169 262 -231 441 -221 185 10 309 115 375 318 64
194 50 506 -33 761 -92 283 -253 495 -441 583 -116 54 -251 65 -351 30 -101
-36 -255 -160 -341 -273 -51 -68 -53 -69 -72 -40 -23 36 -162 175 -211 212
-55 42 -151 89 -216 106 -53 14 -185 20 -224 10z m1306 -243 c171 -87 301
-310 355 -611 24 -136 24 -356 0 -434 -34 -112 -123 -164 -228 -133 -86 25
-179 148 -438 578 -51 85 -116 190 -143 233 l-50 79 18 31 c53 91 173 220 236
253 77 40 175 41 250 4z m-1085 -65 c64 -32 150 -112 228 -213 47 -62 54 -77
45 -93 -5 -11 -53 -85 -105 -165 -52 -79 -94 -147 -94 -150 0 -2 -5 -10 -10
-17 -6 -7 -56 -82 -113 -167 -158 -240 -226 -306 -325 -317 -85 -9 -167 49
-199 140 -38 110 -16 416 42 578 9 24 18 51 20 60 2 9 8 25 14 35 5 11 20 40
32 66 55 116 179 244 258 267 57 16 146 6 207 -24z"/>
</g>
</svg>
