<svg width="145" height="146" viewBox="0 0 145 146" fill="none" xmlns="http://www.w3.org/2000/svg">
<g clip-path="url(#clip0_5_114)">
<path d="M31.7098 0.389618C29.2148 0.389618 27.1798 2.42457 27.1798 4.91959V13.9795C27.1798 16.4746 29.2148 18.5095 31.7098 18.5095V70.6042C31.7098 74.3468 34.7622 77.3992 38.5048 77.3992H124.574C128.317 77.3992 131.369 74.3468 131.369 70.6042V18.5095C133.864 18.5095 135.899 16.4746 135.899 13.9795V4.91959C135.899 2.42457 133.864 0.389618 131.369 0.389618H31.7098ZM31.7098 4.91959H131.369V13.9795H124.574C123.327 13.9795 122.309 14.997 122.309 16.2445C122.309 17.492 123.327 18.5095 124.574 18.5095H126.839V59.2793C125.592 59.2793 124.574 60.2968 124.574 61.5443V66.0742C124.574 67.3218 125.592 68.3392 126.839 68.3392V70.6042C126.839 71.8517 125.822 72.8692 124.574 72.8692H38.5048C37.2573 72.8692 36.2398 71.8517 36.2398 70.6042V68.3392C37.4873 68.3392 38.5048 67.3218 38.5048 66.0742V61.5443C38.5048 60.2968 37.4873 59.2793 36.2398 59.2793V18.5095H97.3944C98.642 18.5095 99.6594 17.492 99.6594 16.2445C99.6594 14.997 98.642 13.9795 97.3944 13.9795H31.7098V4.91959ZM106.454 13.9795C105.207 13.9795 104.189 14.997 104.189 16.2445C104.189 17.492 105.207 18.5095 106.454 18.5095H115.514C116.762 18.5095 117.779 17.492 117.779 16.2445C117.779 14.997 116.762 13.9795 115.514 13.9795H106.454ZM70.2146 23.0395C66.4721 23.0395 63.4196 26.0919 63.4196 29.8345C63.4196 33.577 66.4721 36.6294 70.2146 36.6294H92.8645C96.607 36.6294 99.6594 33.577 99.6594 29.8345C99.6594 26.0919 96.607 23.0395 92.8645 23.0395H70.2146ZM70.2146 27.5695H92.8645C94.112 27.5695 95.1295 28.5869 95.1295 29.8345C95.1295 31.082 94.112 32.0994 92.8645 32.0994H70.2146C68.9671 32.0994 67.9496 31.082 67.9496 29.8345C67.9496 28.5869 68.9671 27.5695 70.2146 27.5695ZM47.5647 59.2793C46.3172 59.2793 45.2997 60.2968 45.2997 61.5443V66.0742C45.2997 67.3218 46.3172 68.3392 47.5647 68.3392C48.8122 68.3392 49.8297 67.3218 49.8297 66.0742V61.5443C49.8297 60.2968 48.8122 59.2793 47.5647 59.2793ZM58.8897 59.2793C57.6422 59.2793 56.6247 60.2968 56.6247 61.5443V66.0742C56.6247 67.3218 57.6422 68.3392 58.8897 68.3392C60.1372 68.3392 61.1547 67.3218 61.1547 66.0742V61.5443C61.1547 60.2968 60.1372 59.2793 58.8897 59.2793ZM70.2146 59.2793C68.9671 59.2793 67.9496 60.2968 67.9496 61.5443V66.0742C67.9496 67.3218 68.9671 68.3392 70.2146 68.3392C71.4621 68.3392 72.4796 67.3218 72.4796 66.0742V61.5443C72.4796 60.2968 71.4621 59.2793 70.2146 59.2793ZM81.5395 59.2793C80.292 59.2793 79.2746 60.2968 79.2746 61.5443V66.0742C79.2746 67.3218 80.292 68.3392 81.5395 68.3392C82.7871 68.3392 83.8045 67.3218 83.8045 66.0742V61.5443C83.8045 60.2968 82.7871 59.2793 81.5395 59.2793ZM92.8645 59.2793C91.617 59.2793 90.5995 60.2968 90.5995 61.5443V66.0742C90.5995 67.3218 91.617 68.3392 92.8645 68.3392C94.112 68.3392 95.1295 67.3218 95.1295 66.0742V61.5443C95.1295 60.2968 94.112 59.2793 92.8645 59.2793ZM104.189 59.2793C102.942 59.2793 101.924 60.2968 101.924 61.5443V66.0742C101.924 67.3218 102.942 68.3392 104.189 68.3392C105.437 68.3392 106.454 67.3218 106.454 66.0742V61.5443C106.454 60.2968 105.437 59.2793 104.189 59.2793ZM115.514 59.2793C114.267 59.2793 113.249 60.2968 113.249 61.5443V66.0742C113.249 67.3218 114.267 68.3392 115.514 68.3392C116.762 68.3392 117.779 67.3218 117.779 66.0742V61.5443C117.779 60.2968 116.762 59.2793 115.514 59.2793ZM44.1938 84.7869C43.5302 84.8046 42.8667 84.8489 42.2119 84.9108L6.15793 88.3437C2.64543 88.6799 0 91.5819 0 95.1032V128.565C0 130.591 0.893608 132.502 2.45964 133.794C4.01681 135.086 6.05176 135.616 8.05132 135.245L33.5944 130.458C36.6556 129.883 39.7965 130.219 42.672 131.432L72.8335 144.137C75.3728 145.207 78.0624 145.747 80.7521 145.738C83.9726 145.738 87.1843 144.977 90.1306 143.447L139.235 117.983C142.765 116.152 144.959 112.551 144.959 108.552C144.959 105.251 143.455 102.199 140.845 100.173C138.235 98.1468 134.891 97.4656 131.697 98.2972L101.323 106.172C100.73 104.402 99.6948 102.783 98.3146 101.5C96.0142 99.3589 92.9176 98.2707 89.7855 98.4919L84.822 98.8458C82.8932 98.9873 80.9379 98.6246 79.1772 97.7929L57.5714 87.5916C53.3865 85.6186 48.7945 84.6542 44.1938 84.7869ZM45.981 89.3258C49.3166 89.4585 52.6079 90.2636 55.6337 91.6969L77.2485 101.889C79.7081 103.048 82.442 103.553 85.1494 103.367L90.1129 103.013C92.0151 102.88 93.8377 103.508 95.2356 104.809C96.6247 106.11 97.3944 107.879 97.3944 109.781V110.702C97.3944 111.595 96.8724 112.409 96.0585 112.772L89.3697 115.771C84.3531 118.027 78.549 118.151 73.444 116.107L62.0217 111.533C60.8538 111.064 59.5355 111.631 59.0755 112.798C58.6065 113.957 59.1728 115.276 60.3407 115.736L71.7629 120.319C78.0093 122.814 85.1051 122.664 91.2365 119.903L97.9165 116.904C100.35 115.807 101.924 113.374 101.924 110.702L132.829 102.677C134.661 102.199 136.572 102.597 138.067 103.756C139.571 104.915 140.429 106.667 140.429 108.578C140.429 110.852 139.173 112.913 137.156 113.957L88.0425 139.43C83.8488 141.597 78.9383 141.792 74.5942 139.961L44.4238 127.255C41.9023 126.194 39.2303 125.654 36.5229 125.654C35.2754 125.654 34.0102 125.769 32.7627 126.008L18.58 128.662V91.7058L42.6455 89.4231C43.7603 89.3169 44.8751 89.2904 45.981 89.3258ZM14.05 92.1481V129.512L7.21965 130.794C6.30834 130.963 5.65362 130.564 5.34395 130.308C5.04314 130.051 4.52997 129.494 4.52997 128.565V95.1032C4.52997 93.9354 5.40589 92.9621 6.58262 92.8559L14.05 92.1481Z" fill="#133D6D"/>
</g>
<defs>
<clipPath id="clip0_5_114">
<rect width="144.959" height="144.959" fill="white" transform="translate(0 0.389618)"/>
</clipPath>
</defs>
</svg>
