<svg width="145" height="146" viewBox="0 0 145 146" fill="none" xmlns="http://www.w3.org/2000/svg">
<g clip-path="url(#clip0_5_112)">
<path d="M6.79496 4.91958C3.05242 4.91958 0 7.972 0 11.7145C0 15.4571 3.05242 18.5095 6.79496 18.5095C9.28999 18.5095 11.4488 17.147 12.6344 15.1297C16.1911 16.8196 18.7923 20.279 19.1197 24.4109L25.4457 104.278C26.3305 115.515 34.7622 124.619 45.4767 126.742C46.3438 132.139 50.9888 136.289 56.6247 136.289C62.0925 136.289 66.6667 132.387 67.7196 127.229H90.8295C91.8824 132.387 96.4566 136.289 101.924 136.289C108.171 136.289 113.249 131.21 113.249 124.964C113.249 118.717 108.171 113.639 101.924 113.639C96.4566 113.639 91.8824 117.541 90.8295 122.699H67.7196C66.6667 117.541 62.0925 113.639 56.6247 113.639C51.3604 113.639 46.9631 117.266 45.6979 122.142C38.9472 120.567 33.3909 115.612 31.0728 109.109H118.646C121.832 109.109 124.619 106.853 125.291 103.738L137.731 45.6894H138.164C141.907 45.6894 144.959 42.6369 144.959 38.8944C144.959 35.1518 141.907 32.0994 138.164 32.0994H86.0695V7.18457C86.0695 5.93705 85.052 4.91958 83.8045 4.91958H70.2146C68.9671 4.91958 67.9496 5.93705 67.9496 7.18457V32.0994H24.2778L23.6408 24.057C23.1453 17.8371 19.0224 12.6524 13.4661 10.5113C12.8998 7.33497 10.1305 4.91958 6.79496 4.91958ZM6.79496 8.98948C8.29906 8.98948 9.52002 10.2104 9.52002 11.7145C9.52002 13.2186 8.29906 14.4396 6.79496 14.4396C5.29087 14.4396 4.0699 13.2186 4.0699 11.7145C4.0699 10.2104 5.29087 8.98948 6.79496 8.98948ZM72.4796 9.44955H81.5395V72.8692C81.5395 73.7805 82.0969 74.6122 82.9375 74.9572C83.7868 75.3111 84.7601 75.1165 85.4059 74.4706L92.8645 67.0121L98.7216 72.8692L77.0096 94.5812L55.2975 72.8692L61.1547 67.0121L68.6132 74.4706C69.2591 75.1165 70.2323 75.3111 71.0817 74.9572C71.9222 74.6122 72.4796 73.7805 72.4796 72.8692V9.44955ZM24.6317 36.6294H67.9496V67.4014L62.7561 62.2078C61.8713 61.3231 60.438 61.3231 59.5532 62.2078L50.4933 71.2678C50.0509 71.7102 49.8297 72.2853 49.8297 72.8692C49.8297 73.4531 50.0509 74.0282 50.4933 74.4706L75.4081 99.3855C76.2929 100.27 77.7262 100.27 78.611 99.3855L103.526 74.4706C104.411 73.5859 104.411 72.1525 103.526 71.2678L94.4659 62.2078C93.5811 61.3231 92.1478 61.3231 91.2631 62.2078L86.0695 67.4014V36.6294H138.164C139.412 36.6294 140.429 37.6469 140.429 38.8944C140.429 40.1419 139.412 41.1594 138.164 41.1594H93.006C91.7585 41.1594 90.7411 42.1768 90.7411 43.4244C90.7411 44.6719 91.7585 45.6894 93.006 45.6894H133.095L120.858 102.783C120.637 103.827 119.708 104.579 118.646 104.579H30.0376C30.0111 104.358 29.9757 104.145 29.958 103.924L26.4101 59.1289C26.649 59.2085 26.9056 59.2793 27.1798 59.2793C28.4274 59.2793 29.4448 58.2618 29.4448 57.0143V52.4843C29.4448 51.2368 28.4274 50.2193 27.1798 50.2193C26.6313 50.2193 26.1447 50.4405 25.7465 50.7679L25.3484 45.6894H61.1547C62.4022 45.6894 63.4196 44.6719 63.4196 43.4244C63.4196 42.1768 62.4022 41.1594 61.1547 41.1594H24.9856L24.6317 36.6294ZM38.5048 50.2193C37.2573 50.2193 36.2398 51.2368 36.2398 52.4843V57.0143C36.2398 58.2618 37.2573 59.2793 38.5048 59.2793C39.7523 59.2793 40.7698 58.2618 40.7698 57.0143V52.4843C40.7698 51.2368 39.7523 50.2193 38.5048 50.2193ZM49.8297 50.2193C48.5822 50.2193 47.5647 51.2368 47.5647 52.4843V57.0143C47.5647 58.2618 48.5822 59.2793 49.8297 59.2793C51.0772 59.2793 52.0947 58.2618 52.0947 57.0143V52.4843C52.0947 51.2368 51.0772 50.2193 49.8297 50.2193ZM61.1547 50.2193C59.9071 50.2193 58.8897 51.2368 58.8897 52.4843V57.0143C58.8897 58.2618 59.9071 59.2793 61.1547 59.2793C62.4022 59.2793 63.4196 58.2618 63.4196 57.0143V52.4843C63.4196 51.2368 62.4022 50.2193 61.1547 50.2193ZM92.8645 50.2193C91.617 50.2193 90.5995 51.2368 90.5995 52.4843V57.0143C90.5995 58.2618 91.617 59.2793 92.8645 59.2793C94.112 59.2793 95.1295 58.2618 95.1295 57.0143V52.4843C95.1295 51.2368 94.112 50.2193 92.8645 50.2193ZM104.189 50.2193C102.942 50.2193 101.924 51.2368 101.924 52.4843V57.0143C101.924 58.2618 102.942 59.2793 104.189 59.2793C105.437 59.2793 106.454 58.2618 106.454 57.0143V52.4843C106.454 51.2368 105.437 50.2193 104.189 50.2193ZM115.514 50.2193C114.267 50.2193 113.249 51.2368 113.249 52.4843V57.0143C113.249 58.2618 114.267 59.2793 115.514 59.2793C116.762 59.2793 117.779 58.2618 117.779 57.0143V52.4843C117.779 51.2368 116.762 50.2193 115.514 50.2193ZM126.839 50.2193C125.592 50.2193 124.574 51.2368 124.574 52.4843V57.0143C124.574 58.2618 125.592 59.2793 126.839 59.2793C128.087 59.2793 129.104 58.2618 129.104 57.0143V52.4843C129.104 51.2368 128.087 50.2193 126.839 50.2193ZM101.924 117.744C105.906 117.744 109.144 120.982 109.144 124.964C109.144 128.945 105.906 132.184 101.924 132.184C97.943 132.184 94.7048 128.945 94.7048 124.964C94.7048 120.982 97.943 117.744 101.924 117.744ZM56.6247 117.815C60.5619 117.815 63.7735 121.027 63.7735 124.964C63.7735 128.901 60.5619 132.113 56.6247 132.113C52.6875 132.113 49.4758 128.901 49.4758 124.964C49.4758 121.027 52.6875 117.815 56.6247 117.815Z" fill="#133D6D"/>
</g>
<defs>
<clipPath id="clip0_5_112">
<rect width="144.959" height="144.959" fill="white" transform="translate(0 0.389618)"/>
</clipPath>
</defs>
</svg>
